<svg width="24" height="24" viewBox="0 0 24 24" fill="none" xmlns="http://www.w3.org/2000/svg">
<path d="M17.4004 21.6004H6.60039C4.28079 21.6004 2.40039 19.72 2.40039 17.4004V6.60039C2.40039 4.28079 4.28079 2.40039 6.60039 2.40039H17.4004C19.72 2.40039 21.6004 4.28079 21.6004 6.60039V17.4004C21.6004 19.72 19.72 21.6004 17.4004 21.6004Z" fill="#41479B"/>
<path d="M21.5998 17.4004V16.4784L18.6216 14.5272H21.5998V13.5166H13.5156V21.6008H14.5261V15.4681L20.9361 19.6677C21.1631 19.3143 21.3384 18.9244 21.4517 18.5091" fill="#F5F5F5"/>
<path d="M2.6828 18.9174C2.7851 19.1814 2.91313 19.4326 3.0641 19.6677L9.47405 15.4681V21.6008H10.4846V13.5166H2.40039V14.5272H5.3786L2.40039 16.4784V17.4008C2.40039 17.5623 2.40984 17.7216 2.42758 17.8783" fill="#F5F5F5"/>
<path d="M2.40039 6.74315V7.52282L5.3786 9.47409H2.40039V10.4846H10.4846V2.40039H9.47409V8.53314L3.0641 4.33352C2.81499 4.72138 2.62813 5.15297 2.51717 5.61414" fill="#F5F5F5"/>
<path d="M21.3119 5.06923C21.2106 4.81052 21.0843 4.56425 20.9361 4.33348L14.5261 8.53314V2.40039H13.5156V10.4846H21.5998V9.47409H18.6216L21.5998 7.52282V6.60039C21.5998 6.43314 21.5898 6.26821 21.5707 6.10607" fill="#F5F5F5"/>
<path d="M13.5162 2.40039H10.4846V10.4846H2.40039V13.5162H10.4846V21.6004H13.5162V13.5162H21.6004V10.4846H13.5162V2.40039Z" fill="#FF4B55"/>
<path d="M7.59036 14.5264L2.42773 17.8776C2.46876 18.2399 2.55576 18.5883 2.683 18.9167L9.44646 14.5264H7.59036V14.5264Z" fill="#FF4B55"/>
<path d="M15.3184 14.5264L21.4528 18.5084C21.5492 18.1552 21.6009 17.7837 21.6009 17.4001V17.3997L17.1745 14.5264L15.3184 14.5264Z" fill="#FF4B55"/>
<path d="M8.46354 9.47421L2.51717 5.61426C2.441 5.93061 2.40039 6.2608 2.40039 6.60051V6.74327L6.60744 9.47421H8.46354Z" fill="#FF4B55"/>
<path d="M16.3834 9.47416L21.5719 6.10614C21.5295 5.74449 21.4414 5.39686 21.3131 5.06934L14.5273 9.47416H16.3834Z" fill="#FF4B55"/>
</svg>
