<svg width="175" height="500" viewBox="0 0 175 500" fill="none" xmlns="http://www.w3.org/2000/svg">
<path d="M55.634 499.999C54.9698 499.999 54.3764 499.743 53.8538 499.23C53.3328 498.74 53.0723 498.111 53.0723 497.365L53.0723 491.724C53.0723 490.979 53.3328 490.349 53.8538 489.861C54.3764 489.347 54.9698 489.091 55.634 489.091L116.681 489.091L116.681 442.518C116.681 441.772 116.941 441.143 117.464 440.63C117.985 440.117 118.625 439.861 119.385 439.861L123.795 439.861C124.555 439.861 125.195 440.117 125.716 440.63C126.238 441.143 126.499 441.772 126.499 442.518L126.499 497.365C126.499 498.112 126.238 498.742 125.716 499.23C125.195 499.744 124.555 500 123.795 500L55.6332 500L55.634 499.999ZM175 497.482C175 498.131 174.729 498.714 174.217 499.231C173.716 499.733 173.074 499.999 172.319 499.999L166.58 499.999C165.827 499.999 165.183 499.733 164.684 499.231C164.171 498.716 163.901 498.127 163.901 497.482L163.901 10.9098L148.395 10.9098C147.64 10.9098 146.995 10.6524 146.474 10.14C145.953 9.62767 145.691 8.99549 145.691 8.25205L145.691 2.65922C145.691 1.91578 145.953 1.28364 146.474 0.77127C146.995 0.258898 147.637 0.00155521 148.395 0.00155517L172.319 0.00155413C173.078 0.00155409 173.716 0.267398 174.217 0.771269C174.728 1.28673 175 1.91423 175 2.65922L175 497.483L175 497.482ZM-2.17456e-05 2.5178C-2.17741e-05 1.86554 0.270561 1.28365 0.783055 0.768183C1.28233 0.265856 1.92939 1.44461e-05 2.68064 1.44132e-05L8.41993 1.41623e-05C9.16962 1.41296e-05 9.81665 0.267402 10.3159 0.768182C10.8269 1.28365 11.0991 1.87482 11.0991 2.5178L11.0991 489.09L26.6053 489.09C27.3597 489.09 28.0052 489.348 28.5262 489.86C29.0473 490.372 29.3094 491.004 29.3094 491.748L29.3094 497.341C29.3094 498.084 29.0473 498.717 28.5262 499.229C28.0052 499.741 27.3651 499.998 26.6053 499.998L2.68066 499.998C1.92086 499.998 1.28235 499.733 0.783077 499.229C0.272138 498.715 -8.3607e-08 498.087 -1.16239e-07 497.341L-2.17457e-05 2.51704L-2.17456e-05 2.5178ZM55.7763 66.5721C55.0165 66.5721 54.3764 66.3395 53.8538 65.8735C53.3328 65.4075 53.0722 64.8016 53.0722 64.0551L53.0722 22.0977C53.0722 19.0219 53.6656 16.154 54.8508 13.4963C56.0376 10.8386 57.6489 8.50785 59.6895 6.50395C61.7279 4.49851 64.1014 2.91502 66.8038 1.74808C69.5086 0.583454 72.4257 1.13646e-05 75.5559 1.12277e-05C78.2133 1.11116e-05 80.726 0.419612 83.0987 1.25888C85.4706 2.09815 87.6046 3.26281 89.5021 4.75434C91.3981 6.2474 93.0351 8.01867 94.4116 10.0697C95.7866 12.1215 96.7595 14.3116 97.328 16.6424L124.935 0.278983C125.223 0.107419 125.552 9.04236e-06 125.93 9.0258e-06C126.406 9.005e-06 126.644 0.284392 126.644 0.83927L126.644 9.65084C126.644 10.2985 126.428 10.9824 126.003 11.6795C125.58 12.3765 125.063 13.0172 124.366 13.4268L98.0403 28.951L98.0403 45.3145C98.0403 46.0594 97.8016 46.6653 97.328 47.1329C96.8536 47.5989 96.2369 47.8315 95.4786 47.8315L91.0668 47.8315C90.307 47.8315 89.6903 47.5981 89.2167 47.1329C88.7431 46.6653 88.5059 46.0594 88.5059 45.3145L88.5059 23.4965C88.5059 19.9531 87.2717 16.899 84.8065 14.3348C82.3397 11.7714 79.3036 10.4894 75.699 10.4894C72.0944 10.4894 69.0583 11.7714 66.5915 14.3348C64.1262 16.8982 62.8921 19.9531 62.8921 23.4965L62.8921 55.8038L123.939 55.8038C124.699 55.8038 125.314 56.0596 125.79 56.5735C126.263 57.0859 126.5 57.715 126.5 58.4615L126.5 64.0543C126.5 64.8008 126.263 65.4067 125.79 65.8727C125.314 66.3387 124.699 66.5714 123.939 66.5714L55.7771 66.5714L55.7763 66.5721ZM116.681 140.977L116.681 91.3275C116.681 90.6753 116.941 90.0918 117.464 89.5802C117.985 89.0663 118.625 88.8105 119.385 88.8105L123.938 88.8105C124.602 88.8105 125.196 89.0663 125.717 89.5802C126.239 90.0926 126.5 90.6753 126.5 91.3275L126.5 149.229C126.5 149.881 126.239 150.464 125.717 150.978C125.196 151.49 124.602 151.746 123.938 151.746L55.7763 151.746C55.0165 151.746 54.3764 151.49 53.8538 150.978C53.3328 150.464 53.0722 149.881 53.0722 149.229L53.0722 92.0261C53.0722 91.2812 53.3328 90.6521 53.8538 90.1382C54.3764 89.6258 55.0165 89.37 55.7763 89.37L60.3296 89.37C60.9938 89.37 61.5871 89.6258 62.1082 90.1382C62.6308 90.6521 62.8913 91.2812 62.8913 92.0261L62.8913 140.977L116.681 140.977L116.681 140.977ZM85.9434 133.285C85.1836 133.285 84.5669 133.052 84.0925 132.586C83.6189 132.12 83.3817 131.514 83.3817 130.767L83.3817 95.663C83.3817 95.0107 83.6189 94.4273 84.0925 93.9133C84.5661 93.401 85.1836 93.1452 85.9434 93.1452L90.3552 93.1452C91.1135 93.1452 91.7302 93.401 92.2046 93.9133C92.6782 94.4273 92.917 95.01 92.917 95.663L92.917 130.767C92.917 131.514 92.6782 132.12 92.2046 132.586C91.731 133.052 91.1135 133.285 90.3552 133.285L85.9434 133.285ZM62.8905 230.489L116.681 230.489L116.681 196.176C116.681 192.658 115.52 189.744 113.195 187.483C110.871 185.198 108.048 184.055 104.728 184.055C101.597 184.055 98.8219 185.011 96.4033 186.923C93.9847 188.834 92.7746 191.562 92.7746 195.105L92.7746 220.141C92.7746 220.886 92.5374 221.492 92.0638 221.958C91.5879 222.424 90.9712 222.658 90.2129 222.658L85.9442 222.658C85.1844 222.658 84.5677 222.423 84.0933 221.958C83.6197 221.492 83.3825 220.886 83.3825 220.141L83.3825 196.364C83.3825 193.194 82.3622 190.699 80.3239 188.882C78.2832 187.064 75.8887 186.154 73.1373 186.154C70.2917 186.154 67.8716 187.157 65.88 189.162C63.8883 191.143 62.8913 193.637 62.8913 196.621L62.8913 230.49L62.8905 230.489ZM55.7763 241.257C55.0165 241.257 54.3764 241.025 53.8538 240.559C53.3328 240.093 53.0723 239.487 53.0723 238.74L53.0723 195.57C53.0723 192.96 53.5933 190.443 54.637 188.065C55.6806 185.687 57.0805 183.612 58.8349 181.841C60.5894 180.045 62.6775 178.648 65.0953 177.623C67.5155 176.596 70.0514 176.083 72.7088 176.083C75.7441 176.083 78.543 176.76 81.1039 178.135C83.6656 179.51 85.847 181.282 87.6504 183.45C89.6421 180.629 92.133 178.344 95.1209 176.596C98.1096 174.849 101.405 173.984 105.011 173.984C107.952 173.984 110.727 174.544 113.335 175.663C115.945 176.782 118.221 178.297 120.165 180.232C122.11 182.143 123.653 184.381 124.791 186.945C125.929 189.511 126.499 192.26 126.499 195.15L126.499 238.739C126.499 239.486 126.262 240.092 125.788 240.558C125.313 241.024 124.697 241.256 123.937 241.256L55.7755 241.256L55.7763 241.257ZM62.8905 314.686L116.681 314.686L116.681 280.373C116.681 276.854 115.52 273.94 113.195 271.679C110.871 269.394 108.048 268.251 104.728 268.251C101.597 268.251 98.8219 269.208 96.4033 271.119C93.9847 273.031 92.7746 275.758 92.7746 279.301L92.7747 304.337C92.7747 305.082 92.5374 305.688 92.0638 306.154C91.5879 306.62 90.9712 306.854 90.2129 306.854L85.9442 306.854C85.1844 306.854 84.5677 306.619 84.0933 306.154C83.6197 305.688 83.3825 305.082 83.3825 304.337L83.3825 280.56C83.3825 277.39 82.3622 274.895 80.3239 273.078C78.2832 271.26 75.8887 270.35 73.1373 270.35C70.2917 270.35 67.8716 271.353 65.88 273.358C63.8883 275.339 62.8913 277.834 62.8913 280.817L62.8913 314.686L62.8905 314.686ZM55.7763 325.454C55.0165 325.454 54.3764 325.221 53.8538 324.755C53.3328 324.289 53.0723 323.684 53.0723 322.936L53.0723 279.766C53.0723 277.157 53.5933 274.639 54.637 272.262C55.6806 269.883 57.0805 267.808 58.8349 266.037C60.5894 264.242 62.6775 262.844 65.0953 261.819C67.5155 260.792 70.0514 260.279 72.7088 260.279C75.7441 260.279 78.543 260.956 81.1039 262.331C83.6656 263.707 85.847 265.478 87.6504 267.646C89.6421 264.825 92.1331 262.54 95.1209 260.792C98.1096 259.045 101.405 258.181 105.011 258.181C107.952 258.181 110.727 258.74 113.335 259.859C115.945 260.979 118.221 262.494 120.165 264.428C122.11 266.34 123.653 268.578 124.791 271.142C125.929 273.707 126.499 276.458 126.499 279.347L126.499 322.936C126.499 323.683 126.262 324.289 125.788 324.755C125.313 325.221 124.697 325.454 123.937 325.454L55.7755 325.454L55.7763 325.454ZM124.222 342.375C124.792 342.189 125.125 342.096 125.218 342.096C126.072 342.096 126.499 342.562 126.499 343.494L126.499 351.327C126.499 352.072 126.119 352.632 125.361 353.005L108.426 360.978L108.426 394.543C108.426 395.195 108.095 395.523 107.431 395.523C107.145 395.523 106.908 395.475 106.718 395.382L100.457 392.305C99.5079 391.932 99.0342 391.233 99.0342 390.207L99.0342 365.452L61.6097 382.516L125.361 413.005C126.119 413.378 126.499 413.937 126.499 414.683L126.499 421.676C126.499 422.609 126.072 423.075 125.218 423.075C125.124 423.075 124.791 422.982 124.222 422.796L55.7763 389.649C55.0165 389.276 54.3764 388.739 53.8538 388.04C53.3328 387.341 53.0723 386.618 53.0723 385.873L53.0723 379.299C53.0723 378.554 53.3328 377.83 53.8538 377.132C54.3764 376.433 55.0165 375.896 55.7763 375.523L124.222 342.376L124.222 342.375Z" fill="white"/>
</svg>
