<svg width="323" height="180" viewBox="0 0 323 180" fill="none" xmlns="http://www.w3.org/2000/svg">
<path d="M322 177.948C322 177.948 319.224 177.939 314.328 177.948C308.821 177.959 307.557 160.689 304.011 157.209C302.569 155.794 299.31 157.139 296.96 158.145C290.923 160.727 274.387 162.066 267.617 162.395C261.652 162.684 245.813 162.513 239.065 160.83C235.299 159.891 234.436 157.295 235.042 154.198C235.897 149.823 237.458 146.511 237.866 141.943C238.367 136.341 236.415 128.215 237.311 123.577C237.734 121.389 240.041 105.919 240.639 101.237C241.138 97.3249 237.298 97.1167 234.329 97.5929C230.763 98.1645 226.049 100.521 225.825 104.601C225.362 112.979 227.693 124.598 233.284 131.387C237.462 136.462 245.73 133.416 249.501 128.84C257.863 118.691 253.609 93.5877 257.818 80.5505C258.894 77.2143 261.554 73.8064 260.886 70.3322C260.465 68.1447 260.09 67.8653 260.044 65.8177C259.997 63.7701 258.009 62.2808 258.103 62.8855C258.197 63.4908 259.015 64.189 260.208 63.9561C261.4 63.7232 261.075 63.9304 261.122 63.3954C261.169 62.8603 260.56 60.9279 260.328 61.7898C260.073 62.7332 261.181 64.2686 262.521 63.4151C263.231 62.9627 263.973 62.1517 263.601 61.999C263.08 61.7853 262.081 63.5812 261.987 64.3259C261.894 65.0706 260.678 66.6296 261.146 67.5607C261.613 68.4913 262.129 68.212 263.297 67.6072C264.467 67.002 264.72 66.7988 265.047 64.9371C265.261 63.7207 265.207 62.035 264.909 60.8824C264.326 58.6281 261.232 59.1834 259.181 59.1834C257.638 59.1834 255.674 58.6716 255.674 59.4163C255.674 60.161 258.854 58.6252 260.21 58.5787C261.566 58.5322 262.643 58.1599 263.952 58.8111C265.261 59.4628 265.869 60.6263 265.869 62.2551C265.869 63.8839 265.261 66.1644 266.01 66.2113C266.758 66.2578 266.852 66.1649 267.179 64.6755C267.507 63.1862 267.506 60.4404 266.103 58.9041C264.7 57.3682 263.578 57.0424 261.848 57.0424C260.117 57.0424 255.646 57.3346 256.679 57.9033C257.546 58.3814 258.277 57.1526 259.098 56.7477C259.576 56.5118 262.408 56.5494 263.04 56.5766C264.115 56.6231 264.022 56.0297 263.461 55.2618C262.9 54.4939 261.77 54.8197 260.391 55.2153C259.366 55.509 258.112 56.0203 257.344 56.1588C252.13 57.0968 250.448 36.3369 252.054 32.0004C252.6 30.5244 252.966 29.315 253.034 28.4165C253.196 26.267 251.08 25.9812 250.862 27.6723C250.745 28.5797 249.623 32.1631 249.389 33.8156C248.736 38.4285 250.602 38.9591 250.769 37.632C250.886 36.7014 250.886 35.8865 251.003 34.9326C251.12 33.9783 251.634 30.8374 252.617 28.2306C252.843 27.6293 253.005 27.1042 253.138 26.6394C254.581 21.6022 260.628 16.0765 266.43 14.9689C271.055 14.0863 278.372 16.8919 281.654 20.9198C283.914 23.6948 283.272 30.4379 283.272 33.83C283.272 36.3898 283.768 37.3995 285.03 37.2596C288.517 36.8739 294.713 11.7711 272.029 8.8686C268.755 8.45028 268.1 9.24094 267.306 7.70561C263.786 0.905649 275.569 0.317715 279.95 1.46538C280.191 1.52867 280.344 1.5727 280.344 1.5727" stroke="#1C1B2D" stroke-width="2" stroke-miterlimit="2.61313"/>
<path d="M280.309 1.56152C280.309 1.56152 284.331 2.63106 286.296 5.7037C288.26 8.77436 287.979 12.7771 286.296 12.7771C284.612 12.7771 279.094 9.84587 275.398 8.86781C271.703 7.89024 268.991 8.02969 266.185 9.00726C264.029 9.75886 260.189 11.4984 257.656 13.6132C256.496 14.5834 254.116 18.2271 253.169 20.5803C251.792 24.0016 254.415 22.7773 255.849 20.875C256.91 19.4683 261.309 13.4501 268.457 14.0059C270.939 14.1977 274.672 15.0181 277.47 16.4075C285.111 20.2011 284.695 26.2386 284.201 33.5533C284.105 34.9818 283.961 36.3218 283.763 37.3928C283.365 39.5556 282.038 41.7837 281.06 43.7735C279.984 45.961 279.142 47.2639 280.031 47.6363C280.92 48.0086 283.656 45.0299 284.685 43.9594C290.076 38.3501 285.757 35.6879 283.957 39.5601C281.426 45.0037 274.183 57.5123 267.288 57.363C265.136 57.3165 265.441 55.3154 263.85 54.594C261.268 53.4226 257.698 55.5958 255.245 56.5723C254.928 56.6984 254.202 56.9857 253.498 57.3803C251.324 58.6002 251.501 61.2223 251.724 63.8569C251.916 66.122 251.862 69.7391 251.586 72.7203C251.029 78.7291 246.983 89.7429 243.173 95.8758C240.626 99.9765 239.421 91.7811 238.948 86.8859C238.652 83.8286 238.692 81.643 239.753 86.1901C240.504 89.4062 240.964 94.6045 240.57 96.3277C240.277 97.6153 236.811 96.799 235.838 96.7604C232.193 96.615 229.534 98.2676 226.812 100.484C224.754 102.159 224.614 101.554 224.754 99.972C225.446 92.1668 221.895 67.7321 234.764 68.3229C240.843 68.6023 246.835 67.6005 249.356 67.02C251.877 66.4395 253.378 66.2753 254.968 68.8817C264.658 84.7646 286.895 67.9001 283.588 65.8827C281.843 64.8181 277.296 62.7058 276.857 60.5968C276.342 58.1299 276.342 55.7565 275.734 57.0599C275.216 58.1695 277.175 61.0349 279.039 62.2345C280.738 63.3283 283.064 65.3635 285.891 65.4842" stroke="#1C1B2D" stroke-width="2" stroke-miterlimit="2.61313"/>
<path d="M292.738 65.8597L292.624 66.8531L292.624 66.8531L292.738 65.8597ZM305.996 71.239L305.041 71.5362L305.041 71.5362L305.996 71.239ZM309.597 92.571L308.618 92.7751V92.7752L309.597 92.571ZM295.098 98.3424L295.497 99.2593L295.497 99.2593L295.098 98.3424ZM290.421 115.749L289.62 115.15L289.62 115.15L290.421 115.749ZM282.283 120.589L282.025 119.623L282.024 119.623L282.283 120.589ZM256.935 126.081L257.039 127.075L257.039 127.075L256.935 126.081ZM249.077 130.689L249.697 131.474L249.697 131.474L249.077 130.689ZM241.454 134.738L241.522 135.736L241.522 135.736L241.454 134.738ZM235.468 134.924L234.832 135.697L234.833 135.697L235.468 134.924ZM232.053 131.387L231.284 132.027L231.284 132.027L232.053 131.387ZM229.621 128.734L229.757 129.725L229.758 129.725L229.621 128.734ZM229.036 132.248L229.677 131.48L229.677 131.48L229.036 132.248ZM231.188 132.62L230.482 133.329L230.482 133.329L231.188 132.62ZM229.574 133.342L230.468 133.791L230.468 133.79L229.574 133.342ZM232.731 136.925L232.973 135.955L232.972 135.954L232.731 136.925ZM230.982 138.313L230.067 137.909L230.067 137.91L230.982 138.313ZM233.082 142.441L232.173 142.858L232.173 142.858L233.082 142.441ZM238.647 143.86L238.384 142.895L238.384 142.895L238.647 143.86ZM247.464 140.276L247.505 141.275L247.464 140.276ZM296.059 136.226L295.792 135.263L295.792 135.263L296.059 136.226ZM309.857 116.213L310.853 116.304V116.304L309.857 116.213ZM297.371 98.9452L297.494 99.9375L297.494 99.9375L297.371 98.9452ZM292.881 100.574L292.695 99.5914L292.694 99.5915L292.881 100.574ZM291.898 98.34L290.899 98.3041V98.3041L291.898 98.34ZM292.319 78.7451L291.485 79.2969L291.486 79.297L292.319 78.7451ZM291.057 100.759L292.042 100.932L292.042 100.932L291.057 100.759ZM291.266 115.555L290.279 115.715V115.715L291.266 115.555ZM302.785 149.623L303.785 149.582V149.582L302.785 149.623ZM299.243 156.19L299.573 157.134L299.573 157.134L299.243 156.19ZM276.559 160.565L276.687 161.557H276.687L276.559 160.565ZM246.161 160.89L246.013 161.879L246.013 161.88L246.161 160.89ZM240.585 160.022L240.655 159.025L240.655 159.025L240.585 160.022ZM230.04 178.452L229.981 177.453H229.981L230.04 178.452ZM2.0028 177.818L1.0028 177.815L0.997207 179.815L1.9972 179.818L2.0028 177.818ZM285.835 65.4844C285.836 66.4844 285.836 66.4844 285.836 66.4844C285.836 66.4844 285.836 66.4844 285.836 66.4844C285.836 66.4844 285.837 66.4844 285.837 66.4844C285.839 66.4844 285.841 66.4844 285.844 66.4844C285.851 66.4844 285.861 66.4844 285.874 66.4845C285.9 66.4845 285.94 66.4847 285.991 66.4851C286.094 66.4858 286.246 66.4872 286.439 66.4901C286.826 66.4958 287.375 66.5073 288.026 66.5305C289.33 66.5769 291.026 66.6695 292.624 66.8531L292.852 64.8662C291.181 64.6741 289.426 64.579 288.097 64.5317C287.43 64.508 286.867 64.4962 286.469 64.4903C286.27 64.4873 286.113 64.4858 286.005 64.4851C285.951 64.4847 285.909 64.4846 285.88 64.4845C285.866 64.4844 285.855 64.4844 285.847 64.4844C285.844 64.4844 285.841 64.4844 285.839 64.4844C285.838 64.4844 285.837 64.4844 285.836 64.4844C285.836 64.4844 285.836 64.4844 285.836 64.4844C285.836 64.4844 285.835 64.4844 285.835 64.4844C285.835 64.4844 285.835 64.4844 285.835 65.4844ZM292.624 66.8531C293.861 66.9953 295.24 67.0565 296.534 67.1488C297.858 67.2433 299.137 67.372 300.304 67.643C302.608 68.1783 304.32 69.2201 305.041 71.5362L306.951 70.9418C305.938 67.6877 303.438 66.3178 300.756 65.6949C299.429 65.3867 298.021 65.2498 296.677 65.1539C295.302 65.0558 294.033 65.0019 292.852 64.8662L292.624 66.8531ZM305.041 71.5362C305.82 74.0387 306.481 78.1865 307.067 82.3394C307.645 86.4307 308.15 90.5311 308.618 92.7751L310.576 92.3668C310.125 90.2081 309.637 86.2368 309.048 82.0599C308.467 77.9446 307.787 73.6278 306.951 70.9418L305.041 71.5362ZM308.618 92.7752C308.874 94.0011 309.089 95.1461 309.219 96.1514C309.35 97.1697 309.383 97.9807 309.307 98.5605C309.269 98.847 309.21 99.0318 309.154 99.1424C309.127 99.1948 309.105 99.2234 309.092 99.2377C309.08 99.2507 309.073 99.2548 309.07 99.2565C309.066 99.2583 309.054 99.2648 309.023 99.2698C308.992 99.2751 308.937 99.2791 308.854 99.2706C308.681 99.2529 308.419 99.185 308.048 99.0153L307.216 100.834C308.16 101.266 309.163 101.478 310.018 101.017C310.882 100.552 311.184 99.6234 311.29 98.822C311.4 97.9822 311.34 96.9663 311.202 95.8961C311.063 94.8128 310.835 93.6076 310.576 92.3668L308.618 92.7752ZM308.048 99.0153C306.227 98.1829 303.753 97.437 301.343 97.0634C298.978 96.6968 296.469 96.655 294.699 97.4255L295.497 99.2593C296.72 98.7269 298.748 98.6851 301.036 99.0398C303.28 99.3875 305.576 100.084 307.216 100.834L308.048 99.0153ZM294.699 97.4255C292.48 98.3914 291.234 99.6983 290.683 101.317C290.158 102.858 290.324 104.533 290.549 106.081C291.022 109.332 291.745 112.309 289.62 115.15L291.222 116.348C293.948 112.702 292.957 108.741 292.528 105.793C292.303 104.241 292.222 103.001 292.576 101.961C292.904 100.998 293.663 100.058 295.497 99.2593L294.699 97.4255ZM289.62 115.15C288.214 117.03 286.915 117.966 285.721 118.518C284.47 119.098 283.354 119.267 282.025 119.623L282.542 121.555C283.645 121.26 285.101 121.01 286.562 120.333C288.082 119.629 289.635 118.47 291.222 116.348L289.62 115.15ZM282.024 119.623C280.833 119.942 275.406 121.217 269.812 122.463C264.191 123.716 258.535 124.908 256.831 125.086L257.039 127.075C258.889 126.881 264.691 125.653 270.247 124.416C275.832 123.172 281.302 121.887 282.542 121.555L282.024 119.623ZM256.831 125.086C254.832 125.296 253.523 125.492 252.644 125.735C251.737 125.985 251.139 126.324 250.728 126.909C250.021 127.914 250.382 128.385 248.458 129.904L249.697 131.474C251.877 129.753 252.167 128.339 252.364 128.059C252.404 128.002 252.502 127.849 253.176 127.663C253.879 127.469 255.039 127.285 257.039 127.075L256.831 125.086ZM248.458 129.904C246.936 131.104 244.71 133.513 241.386 133.74L241.522 135.736C245.638 135.454 248.505 132.414 249.697 131.474L248.458 129.904ZM241.386 133.74C239.481 133.87 238.15 134.153 237.331 134.268C236.479 134.387 236.293 134.309 236.102 134.152L234.833 135.697C235.718 136.424 236.665 136.38 237.608 136.248C238.583 136.112 239.707 135.86 241.522 135.736L241.386 133.74ZM236.103 134.152C235.095 133.323 234.158 132.353 232.821 130.747L231.284 132.027C232.661 133.68 233.689 134.756 234.832 135.697L236.103 134.152ZM232.822 130.747C232.254 130.065 232.167 129.585 231.866 128.939C231.725 128.637 231.487 128.211 231.002 127.945C230.527 127.683 229.994 127.673 229.484 127.743L229.758 129.725C230.089 129.679 230.112 129.738 230.039 129.698C229.956 129.652 229.966 129.598 230.054 129.785C230.208 130.116 230.496 131.079 231.284 132.027L232.822 130.747ZM229.484 127.743C228.784 127.84 228.24 128.196 227.882 128.701C227.542 129.18 227.404 129.742 227.374 130.25C227.345 130.763 227.422 131.286 227.579 131.749C227.731 132.197 227.99 132.678 228.396 133.016L229.677 131.48C229.65 131.457 229.555 131.347 229.472 131.105C229.395 130.878 229.357 130.612 229.371 130.365C229.385 130.114 229.45 129.947 229.513 129.858C229.558 129.795 229.615 129.744 229.757 129.725L229.484 127.743ZM228.396 133.016C229.021 133.537 229.884 133.8 230.491 133.879C230.654 133.9 230.821 133.912 230.982 133.907C231.127 133.902 231.339 133.883 231.551 133.798C231.74 133.723 232.22 133.464 232.269 132.853C232.309 132.348 231.998 132.016 231.893 131.911L230.482 133.329C230.469 133.316 230.42 133.265 230.373 133.177C230.324 133.087 230.257 132.917 230.275 132.695C230.317 132.167 230.732 131.972 230.81 131.941C230.91 131.9 230.965 131.906 230.919 131.908C230.89 131.909 230.833 131.907 230.75 131.896C230.375 131.847 229.916 131.68 229.677 131.48L228.396 133.016ZM231.894 131.912C231.614 131.633 231.262 131.462 230.874 131.426C230.501 131.391 230.162 131.487 229.888 131.625C229.356 131.892 228.939 132.378 228.681 132.893L230.468 133.79C230.521 133.685 230.585 133.594 230.649 133.526C230.714 133.455 230.765 133.422 230.786 133.412C230.808 133.401 230.772 133.425 230.689 133.417C230.591 133.408 230.516 133.362 230.482 133.329L231.894 131.912ZM228.681 132.892C228.467 133.318 228.364 133.88 228.319 134.39C228.271 134.929 228.278 135.531 228.346 136.102C228.413 136.658 228.548 137.259 228.802 137.753C229.046 138.225 229.549 138.856 230.416 138.856V136.856C230.665 136.856 230.69 137.05 230.58 136.836C230.48 136.643 230.385 136.307 230.332 135.863C230.28 135.433 230.276 134.97 230.311 134.567C230.35 134.135 230.425 133.876 230.468 133.791L228.681 132.892ZM230.416 138.856C231.05 138.856 231.981 138.646 232.617 138.421C232.785 138.361 232.954 138.293 233.107 138.218C233.239 138.152 233.439 138.042 233.605 137.876C233.689 137.793 233.827 137.634 233.901 137.396C233.989 137.116 233.965 136.795 233.796 136.515C233.652 136.276 233.452 136.149 233.332 136.087C233.203 136.02 233.076 135.98 232.973 135.955L232.49 137.895C232.504 137.899 232.467 137.892 232.408 137.861C232.357 137.834 232.202 137.746 232.083 137.548C231.939 137.31 231.919 137.033 231.993 136.799C232.053 136.607 232.158 136.496 232.192 136.461C232.26 136.393 232.296 136.387 232.218 136.426C232.16 136.455 232.07 136.493 231.95 136.535C231.435 136.717 230.741 136.856 230.416 136.856V138.856ZM232.972 135.954C232.187 135.759 231.507 136.152 231.098 136.502C230.658 136.878 230.295 137.392 230.067 137.909L231.897 138.716C232.017 138.443 232.209 138.183 232.397 138.023C232.615 137.837 232.635 137.931 232.49 137.895L232.972 135.954ZM230.067 137.91C229.638 138.882 229.855 139.95 230.294 140.719C230.721 141.469 231.537 142.23 232.614 142.23V140.23C232.529 140.23 232.263 140.136 232.032 139.73C231.811 139.342 231.793 138.952 231.897 138.716L230.067 137.91ZM232.614 142.23C233.2 142.23 233.861 142.032 234.311 141.81C234.502 141.716 234.837 141.532 235.051 141.229C235.169 141.063 235.366 140.689 235.216 140.227C235.075 139.787 234.722 139.593 234.55 139.519L233.765 141.359C233.715 141.338 233.431 141.208 233.313 140.84C233.187 140.449 233.361 140.156 233.419 140.073C233.482 139.984 233.536 139.952 233.517 139.965C233.508 139.972 233.479 139.99 233.426 140.017C233.18 140.138 232.823 140.23 232.614 140.23V142.23ZM234.55 139.519C234.153 139.35 233.73 139.382 233.41 139.471C233.066 139.566 232.711 139.76 232.423 140.068C231.78 140.758 231.673 141.77 232.173 142.858L233.99 142.023C233.859 141.737 233.854 141.573 233.86 141.508C233.866 141.452 233.881 141.437 233.886 141.432C233.9 141.418 233.923 141.404 233.944 141.398C233.953 141.395 233.948 141.398 233.927 141.398C233.91 141.398 233.85 141.395 233.765 141.359L234.55 139.519ZM232.173 142.858C232.743 144.1 234.029 144.697 235.205 144.941C236.417 145.192 237.781 145.132 238.91 144.825L238.384 142.895C237.548 143.123 236.504 143.168 235.611 142.983C234.683 142.79 234.168 142.411 233.99 142.023L232.173 142.858ZM238.909 144.825C239.523 144.658 240.193 144.324 240.842 143.974C241.572 143.58 242.162 143.229 242.964 142.803C244.473 142 246.015 141.335 247.505 141.275L247.424 139.277C245.453 139.356 243.569 140.216 242.025 141.037C241.3 141.422 240.458 141.908 239.891 142.214C239.243 142.564 238.753 142.795 238.384 142.895L238.909 144.825ZM247.505 141.275C250.94 141.136 252.175 141.183 254.574 141.183V139.183C252.201 139.183 250.911 139.136 247.424 139.277L247.505 141.275ZM254.574 141.183C255.758 141.183 259.302 141.229 263.149 141.276C266.988 141.322 271.123 141.369 273.468 141.369V139.369C271.137 139.369 267.017 139.323 263.174 139.276C259.339 139.23 255.774 139.183 254.574 139.183V141.183ZM273.468 141.369C275.919 141.369 280.444 140.649 284.885 139.785C289.355 138.915 293.861 137.874 296.326 137.19L295.792 135.263C293.393 135.928 288.942 136.958 284.503 137.822C280.033 138.692 275.695 139.369 273.468 139.369V141.369ZM296.326 137.19C301.979 135.621 305.435 133.595 307.549 130.203C309.615 126.891 310.294 122.419 310.853 116.304L308.861 116.122C308.297 122.3 307.629 126.295 305.852 129.145C304.124 131.917 301.242 133.75 295.792 135.263L296.326 137.19ZM310.853 116.304C310.949 115.242 311.325 105.809 311.325 104.391H309.325C309.325 105.765 308.951 115.136 308.861 116.122L310.853 116.304ZM311.325 104.391C311.325 103.326 310.665 102.074 309.645 101.058C308.587 100.005 307.033 99.0885 305.02 98.7502L304.688 100.723C306.276 100.989 307.458 101.702 308.234 102.476C309.05 103.288 309.325 104.06 309.325 104.391H311.325ZM305.02 98.7502C301.593 98.1743 300.433 97.5565 297.247 97.9528L297.494 99.9375C300.294 99.5892 300.912 100.088 304.688 100.723L305.02 98.7502ZM297.247 97.9528C295.626 98.1546 294.63 98.5541 293.897 98.9493C293.602 99.1086 293.218 99.3466 293.082 99.4237C292.884 99.5364 292.78 99.5753 292.695 99.5914L293.067 101.556C293.473 101.48 293.802 101.315 294.069 101.163C294.4 100.975 294.516 100.888 294.846 100.71C295.365 100.43 296.123 100.108 297.494 99.9375L297.247 97.9528ZM292.694 99.5915C292.635 99.6028 292.742 99.5713 292.878 99.6666C292.991 99.745 292.989 99.819 292.96 99.7221C292.931 99.629 292.905 99.4687 292.893 99.219C292.882 98.9761 292.886 98.6951 292.898 98.3758L290.899 98.3041C290.877 98.9237 290.861 99.7017 291.048 100.309C291.147 100.631 291.338 101.031 291.734 101.307C292.155 101.6 292.636 101.638 293.067 101.556L292.694 99.5915ZM292.898 98.3758C292.911 98.0077 292.862 96.4425 292.806 94.4324C292.749 92.386 292.682 89.8052 292.653 87.3266C292.624 84.8409 292.633 82.4843 292.726 80.8762C292.774 80.0504 292.84 79.503 292.909 79.237C292.924 79.176 292.932 79.1653 292.923 79.1846C292.917 79.1956 292.901 79.2287 292.869 79.2724C292.839 79.3145 292.777 79.3888 292.676 79.459C292.568 79.5335 292.415 79.6026 292.225 79.6158C292.036 79.629 291.875 79.5819 291.759 79.5239C291.65 79.4692 291.58 79.4053 291.546 79.3696C291.509 79.3324 291.49 79.3041 291.485 79.2969L293.153 78.1932C293.08 78.0831 292.924 77.8705 292.655 77.7355C292.504 77.6598 292.309 77.6051 292.086 77.6207C291.863 77.6362 291.678 77.7175 291.538 77.8137C291.29 77.9852 291.168 78.2168 291.114 78.3305C291.05 78.467 291.005 78.6093 290.973 78.7345C290.849 79.213 290.777 79.9409 290.729 80.7609C290.632 82.4444 290.624 84.8615 290.653 87.3501C290.682 89.8458 290.75 92.4402 290.807 94.4881C290.865 96.5723 290.909 98.0207 290.899 98.3041L292.898 98.3758ZM291.486 79.297C291.466 79.2681 291.5 79.311 291.544 79.5039C291.585 79.6788 291.622 79.918 291.652 80.2254C291.71 80.8392 291.732 81.6476 291.721 82.605C291.699 84.5154 291.548 86.9311 291.341 89.3887C290.927 94.3109 290.298 99.3026 290.072 100.585L292.042 100.932C292.284 99.5619 292.918 94.5007 293.334 89.5564C293.542 87.0807 293.698 84.6097 293.721 82.6282C293.732 81.6397 293.711 80.7508 293.642 80.0346C293.608 79.677 293.56 79.3429 293.493 79.0513C293.429 78.7776 293.33 78.4606 293.153 78.1931L291.486 79.297ZM290.072 100.585C289.59 103.322 289.59 105.112 289.59 106.39H291.59C291.59 105.156 291.589 103.501 292.042 100.932L290.072 100.585ZM289.59 106.39C289.59 107.279 289.635 111.732 290.279 115.715L292.253 115.395C291.636 111.577 291.59 107.256 291.59 106.39H289.59ZM290.279 115.715C291.379 122.519 294.184 126.444 296.657 130.851C299.113 135.226 301.401 140.298 301.786 149.665L303.785 149.582C303.383 139.836 300.976 134.46 298.401 129.872C295.844 125.316 293.283 121.763 292.253 115.395L290.279 115.715ZM301.786 149.665C301.832 150.788 301.899 151.521 301.914 152.219C301.928 152.883 301.88 153.266 301.773 153.538C301.593 153.997 301.111 154.476 298.912 155.246L299.573 157.134C301.707 156.386 303.083 155.671 303.634 154.27C303.892 153.613 303.929 152.899 303.914 152.178C303.899 151.491 303.824 150.548 303.785 149.582L301.786 149.665ZM298.912 155.246C290.224 158.288 285.963 158.346 276.432 159.573L276.687 161.557C286.11 160.344 290.636 160.263 299.573 157.134L298.912 155.246ZM276.432 159.573C272.509 160.078 261.702 160.682 256.862 160.728L256.881 162.728C261.768 162.681 272.659 162.075 276.687 161.557L276.432 159.573ZM256.862 160.728C252.075 160.774 250.03 160.457 246.308 159.901L246.013 161.88C249.775 162.441 251.939 162.775 256.881 162.728L256.862 160.728ZM246.308 159.901C244.907 159.692 243.883 159.503 243.014 159.35C242.15 159.199 241.42 159.079 240.655 159.025L240.514 161.02C241.166 161.066 241.806 161.169 242.667 161.32C243.523 161.471 244.579 161.665 246.013 161.879L246.308 159.901ZM240.655 159.025C239.071 158.913 237.779 159.116 236.766 159.668C235.727 160.234 235.09 161.106 234.721 162.106C234.362 163.081 234.252 164.188 234.241 165.293C234.231 166.402 234.321 167.59 234.404 168.734C234.577 171.108 234.704 173.24 234.154 174.831C233.893 175.586 233.49 176.176 232.881 176.607C232.263 177.044 231.352 177.373 229.981 177.453L230.098 179.45C231.73 179.354 233.032 178.949 234.036 178.24C235.048 177.524 235.673 176.556 236.044 175.485C236.757 173.425 236.562 170.838 236.399 168.589C236.314 167.421 236.231 166.322 236.241 165.312C236.251 164.299 236.355 163.457 236.598 162.798C236.831 162.165 237.184 161.718 237.722 161.425C238.285 161.118 239.155 160.924 240.514 161.02L240.655 159.025ZM229.981 177.453C221.845 177.93 164.884 178.023 109.889 177.994C82.4067 177.98 55.4351 177.936 35.334 177.896C25.2835 177.875 16.9506 177.856 11.1304 177.842C8.22034 177.835 5.93841 177.829 4.38401 177.825C3.60681 177.823 3.01149 177.821 2.61048 177.82C2.40998 177.819 2.25805 177.819 2.15625 177.819C2.10535 177.818 2.06699 177.818 2.04135 177.818C2.02853 177.818 2.01889 177.818 2.01245 177.818C2.00924 177.818 2.00682 177.818 2.00521 177.818C2.0036 177.818 2.0028 177.818 2 178.818C1.9972 179.818 1.99801 179.818 1.99963 179.818C2.00124 179.818 2.00366 179.818 2.00688 179.818C2.01332 179.818 2.02296 179.818 2.03579 179.818C2.06144 179.818 2.09982 179.818 2.15073 179.819C2.25256 179.819 2.40451 179.819 2.60504 179.82C3.0061 179.821 3.60147 179.823 4.37873 179.825C5.93324 179.829 8.21529 179.835 11.1255 179.842C16.946 179.856 25.2791 179.875 35.33 179.896C55.4317 179.936 82.4044 179.98 109.888 179.994C164.825 180.023 221.884 179.932 230.098 179.45L229.981 177.453Z" fill="#1C1B2D"/>
</svg>
