<svg width="24" height="24" viewBox="0 0 24 24" fill="none" stroke="#2199DD" xmlns="http://www.w3.org/2000/svg">
<path d="M5.27001 10.4998C5.27001 9.61584 5.44412 8.74054 5.7824 7.92387C6.12068 7.10719 6.6165 6.36515 7.24155 5.74009C7.86661 5.11504 8.60865 4.61922 9.42533 4.28094C10.242 3.94266 11.1173 3.76855 12.0013 3.76855C12.8852 3.76855 13.7605 3.94266 14.5772 4.28094C15.3939 4.61922 16.1359 5.11504 16.761 5.74009C17.386 6.36515 17.8819 7.10719 18.2201 7.92387C18.5584 8.74054 18.7325 9.61584 18.7325 10.4998V10.4998C18.7325 13.8561 19.4356 15.8061 20.0544 16.8748C20.1201 16.9886 20.1548 17.1177 20.1549 17.2491C20.155 17.3806 20.1206 17.5097 20.0551 17.6237C19.9895 17.7376 19.8952 17.8323 19.7816 17.8983C19.6679 17.9644 19.5389 17.9993 19.4075 17.9998H4.59501C4.46359 17.9993 4.33459 17.9644 4.22094 17.8983C4.10729 17.8323 4.01299 17.7376 3.94748 17.6237C3.88196 17.5097 3.84754 17.3806 3.84766 17.2491C3.84777 17.1177 3.88242 16.9886 3.94814 16.8748C4.56689 15.8061 5.27001 13.8561 5.27001 10.4998Z"  stroke-width="1.5" stroke-linecap="round" stroke-linejoin="round"/>
<path d="M9 18V18.75C9 19.5456 9.31607 20.3087 9.87868 20.8713C10.4413 21.4339 11.2044 21.75 12 21.75C12.7956 21.75 13.5587 21.4339 14.1213 20.8713C14.6839 20.3087 15 19.5456 15 18.75V18"  stroke-width="1.5" stroke-linecap="round" stroke-linejoin="round"/>
<path d="M17.1953 2.25C18.7224 3.21395 19.9548 4.57938 20.7578 6.19687"  stroke-width="1.5" stroke-linecap="round" stroke-linejoin="round"/>
<path d="M3.24219 6.19687C4.04518 4.57938 5.27764 3.21395 6.80469 2.25"  stroke-width="1.5" stroke-linecap="round" stroke-linejoin="round"/>
</svg>
